<?xml version="1.0" encoding="UTF-8"?>
<svg width="39px" height="40px" viewBox="0 0 39 40" version="1.1" xmlns="http://www.w3.org/2000/svg" xmlns:xlink="http://www.w3.org/1999/xlink">
    <!-- Generator: sketchtool 52.2 (67145) - http://www.bohemiancoding.com/sketch -->
    <title>969B0A72-79C9-4494-B47B-76C2D8AD7AE1</title>
    <desc>Created with sketchtool.</desc>
    <g id="03_Get-coins" stroke="none" stroke-width="1" fill="none" fill-rule="evenodd">
        <g id="03_3_BG_miner_mania" transform="translate(-594.000000, -689.000000)" fill="#5F2EC1" fill-rule="nonzero">
            <g id="4" transform="translate(574.000000, 669.000000)">
                <g id="ic_cup_big" transform="translate(20.000000, 20.000000)">
                    <g id="cup">
                        <path d="M37.8708012,5.58166738 C36.6309458,3.67584084 34.5337169,2.57267378 31.9278434,2.44200828 L31.9278434,0.662929585 C31.9278434,0.339223296 31.6603253,0.0768168696 31.3303133,0.0768168696 L27.0285663,0.0768168696 L27.0285663,1.2490423 L30.7327831,1.2490423 L30.7327831,4.96836149 C30.7327831,12.8473142 27.6926627,19.8934184 23.1679578,22.501812 C21.5638675,23.4264566 20.5692892,25.1521476 20.5721867,27.0055082 L20.5749277,28.693943 L18.4256988,28.693943 L18.4282831,27.005201 C18.4311024,25.1519172 17.4363675,23.4264566 15.832512,22.5020424 C11.3075723,19.8938024 8.26745181,12.8476214 8.26745181,4.96843831 L8.26745181,1.24896548 L28.1403795,1.24896548 L28.1403795,0.0767400527 L7.66992169,0.0767400527 C7.33990964,0.0767400527 7.07239157,0.339146479 7.07239157,0.662852768 L7.07239157,2.44200828 C4.46675301,2.57282741 2.36975904,3.67599448 1.13006024,5.58174419 C-0.288349398,7.76180695 -0.335650602,10.6312243 1.00021687,13.4541674 C2.01523494,15.5982031 4.01559036,17.3938742 6.94568072,18.7914035 C9.13030723,19.8333476 11.042247,20.2630611 11.252988,20.3086135 L11.7403313,20.4140063 C12.7808795,21.7322606 13.954247,22.7787368 15.2271506,23.5124147 C16.4668494,24.2269652 17.235494,25.5646542 17.2333795,27.0034342 L17.2307952,28.693943 L13.7871265,28.693943 C12.1664337,28.693943 10.8526506,29.9826996 10.8526506,31.5723479 L10.8526506,32.2885116 L9.21950602,32.2885116 C8.88949398,32.2885116 8.6219759,32.550918 8.6219759,32.8746243 L8.6219759,38.8210182 C8.6219759,39.1447245 8.88949398,39.4071309 9.21950602,39.4071309 L14.3075181,39.4071309 L14.3075181,38.2349055 L9.81695783,38.2349055 L9.81695783,33.4606602 L11.4501024,33.4606602 L16.6974036,33.4606602 L22.3033795,33.4606602 L27.5506024,33.4606602 L29.183747,33.4606602 L29.183747,38.2349055 L13.1959398,38.2349055 L13.1959398,39.4071309 L29.7812771,39.4071309 C30.1112892,39.4071309 30.3788072,39.1447245 30.3788072,38.8210182 L30.3788072,32.8746243 C30.3788072,32.550918 30.1112892,32.2885116 29.7812771,32.2885116 L28.1481325,32.2885116 L28.1481325,31.5723479 C28.1481325,29.9826996 26.8342711,28.693943 25.2136566,28.693943 L21.7699096,28.693943 L21.7671687,27.0035878 C21.7648976,25.5648078 22.5336988,24.2269652 23.7733976,23.5122611 C25.0463012,22.7785832 26.219512,21.7321069 27.2600602,20.4139295 L27.7479518,20.3085367 C27.9591627,20.2628307 29.874,19.831504 32.0547108,18.7914035 C34.9849578,17.3937974 36.9852349,15.5981263 37.9997831,13.4540138 C39.335494,10.6314548 39.288506,7.76226785 37.8708012,5.58166738 Z M7.0885241,5.96644308 C7.19918072,9.53681436 7.90384337,12.9470993 9.14581325,15.9124609 C8.98574096,15.8440939 8.82793976,15.774421 8.67381928,15.7030581 C7.12243373,14.9853581 5.09584337,13.7557505 4.25178313,11.9728309 C3.44155422,10.2613511 3.40529518,8.62138772 4.1523253,7.47335961 C4.72181928,6.59741684 5.75383133,6.07245036 7.0885241,5.96644308 Z M7.46818675,17.7371688 C5.62806024,16.8596129 3.20027108,15.318436 2.08407229,12.9605422 C0.92346988,10.5079332 0.94296988,8.04825706 2.13748193,6.21218024 C3.15195181,4.65264416 4.89183735,3.74267152 7.07246988,3.61669185 L7.07246988,4.79298858 C5.31786145,4.91228518 3.93445783,5.6282184 3.14490361,6.84292356 C2.1739759,8.33493762 2.18235542,10.3846421 3.16792771,12.4664561 C4.16274096,14.5678584 6.43398193,15.9628528 8.16368675,16.7629773 C8.69840964,17.0107117 9.26829518,17.2404709 9.85846386,17.4497969 C10.1288012,17.9779129 10.4145663,18.4816011 10.7151325,18.9588643 C9.96222892,18.7445452 8.7590241,18.3527792 7.46818675,17.7371688 Z M25.2136566,29.8660148 C26.1728373,29.8660148 26.9531506,30.6314181 26.9531506,31.5722711 L26.9531506,32.2884348 L22.3033795,32.2884348 L16.6974819,32.2884348 L12.0477108,32.2884348 L12.0477108,31.5722711 C12.0477108,30.6314181 12.8280241,29.8660148 13.7872048,29.8660148 L17.8274639,29.8660148 L21.1733976,29.8660148 L25.2136566,29.8660148 Z M31.9119458,5.96636626 C33.246247,6.07229672 34.278494,6.59749366 34.8486145,7.47328279 C35.5950181,8.62146454 35.5584458,10.2614279 34.7482952,11.9726773 C33.9038434,13.756365 31.8775663,14.9857422 30.326259,15.7029813 C30.1719819,15.774421 30.0143373,15.8438634 29.8548133,15.912 C31.0965482,12.946792 31.8012108,9.53666073 31.9119458,5.96636626 Z M36.9159277,12.9604654 C35.8000422,15.3183592 33.3723313,16.8595361 31.5321265,17.7371688 C30.2429337,18.352011 29.0387108,18.7440843 28.285259,18.9586339 C28.5859819,18.4811402 28.8718253,17.9772215 29.142241,17.4487983 C29.7291205,17.2410087 30.2986928,17.0117103 30.8358434,16.7631309 C32.5657048,15.9633137 34.8368675,14.5686266 35.831994,12.4663793 C36.8174096,10.3849494 36.8261807,8.3353217 35.8558795,6.84284674 C35.0653072,5.62814158 33.6818253,4.91213154 31.9277651,4.79298858 L31.9277651,3.61676867 C34.1085542,3.74251789 35.8486747,4.65256734 36.8631446,6.21202661 C38.0572651,8.04841069 38.0764518,10.5080869 36.9159277,12.9604654 Z" id="Shape"></path>
                    </g>
                </g>
            </g>
        </g>
    </g>
</svg>