<?xml version="1.0" encoding="UTF-8"?>
<svg width="808px" height="430px" viewBox="0 0 808 430" version="1.1" xmlns="http://www.w3.org/2000/svg" xmlns:xlink="http://www.w3.org/1999/xlink">
    <!-- Generator: sketchtool 52.2 (67145) - http://www.bohemiancoding.com/sketch -->
    <title>B80B4DB1-2AE2-4150-B27A-6A30B1DDB795@2x</title>
    <desc>Created with sketchtool.</desc>
    <g id="01_Main-Page" stroke="none" stroke-width="1" fill="none" fill-rule="evenodd" opacity="0.400000006">
        <g id="01-BG_Main-_v4_login" transform="translate(-531.000000, -1600.000000)" fill="#97A3B4">
            <g id="Group-6" transform="translate(101.000000, 1600.000000)">
                <g id="banner">
                    <g id="lines" transform="translate(960.321675, 124.237598) scale(-1, 1) rotate(-291.000000) translate(-960.321675, -124.237598) translate(530.321675, -297.262402)">
                        <path d="M157.6208,685.21142 C230.7896,667.97732 282.5272,613.768866 306.9856,586.475819 C333.6456,558.255838 377.884,492.237563 430,377.881413 C481.944,263.490932 532.6152,181.474468 564.676,145.1524 C593.1936,109.825928 659.6888,41.2671675 748.544,28.7363976 C808.4344,21.2179356 842.0088,44.6315935 860,70.894714 L860,57.2310252 C840.564,33.5427203 807.4024,14.7637308 752.2248,21.3209282 C659.0696,33.9890217 590.2008,105.809216 560.9608,142.543254 C529.76,178.45335 480.3616,258.478624 430,368.749399 C379.4664,479.020175 337.4296,543.802539 312.0768,571.747873 C287.4808,600.276831 235.3992,657.643726 160.7512,675.907752 C85.7592,692.695551 48.0912,651.841808 34.916,626.230974 C17.2344,607.28033 18.8512,565.739969 0,481.389006 L0,498.039481 C15.7896,580.673901 14.6544,620.360394 32.8864,638.796075 C46.268,663.033674 84.0736,701.175278 157.6208,685.21142" id="Fill-2" opacity="0.04"></path>
                        <path d="M148.2296,709.703743 C224.6664,693.297088 278.8464,638.82562 304.1648,611.538401 C331.788,583.221476 378.0216,517.14865 430,402.54233 C481.7376,287.901687 530.1728,205.181941 561.1672,168.352776 C588.6184,132.587641 652.4648,62.9794902 738.1896,49.387366 C817.688,38.0605958 849.7488,85.598707 860,118.92687 L860,98.1954483 C845.1392,66.0686093 811.324,32.1912695 741.836,41.5959211 C651.8456,55.3939865 585.6944,128.365845 557.5208,165.538245 C527.352,201.989851 480.1552,282.821802 430,393.480914 C379.6728,504.140026 335.8128,568.942881 309.5656,597.053865 C284.1096,625.679702 229.5512,683.377583 151.6008,700.710974 C73.1688,716.602775 35.1224,674.007255 22.5664,647.509477 C8.3592,631.17147 7.4648,598.873013 0,539.253014 L0,576.700002 C4.5752,621.046023 7.4304,646.102212 20.1584,659.900277 C33.0928,684.887819 71.4488,724.737456 148.2296,709.703743" id="Fill-5" opacity="0.06"></path>
                        <path d="M166.4616,657.696691 C236.4312,639.726576 285.8296,585.987699 309.4624,558.861055 C335.1936,530.911352 377.6088,465.306712 430,351.690312 C482.2192,238.108206 535.2296,157.139803 568.46,121.439631 C598.044,86.6996931 667.0504,19.4832296 759.0016,8.09758379 C807.7464,2.747702 839.4976,16.4310535 860,35.3614044 L860,24.5587585 C839.0504,7.72034854 808.1592,-3.6310032 762.6136,1.06729042 C666.328,12.5558186 594.948,82.9273406 564.5728,119.004749 C532.3056,154.259098 480.74,233.204148 430,342.602372 C379.1568,452.069184 338.7712,516.233471 314.244,544.045998 C290.4736,572.372936 240.7312,628.992518 169.3856,648.025751 C97.6616,665.68722 60.3032,626.934871 46.3712,602.380286 C27.1416,583.175582 28.9992,539.48488 0,447.816714 L0,458.173536 C26.9008,552.756703 24.5272,595.967286 44.7544,615.034814 C58.7208,638.251929 96.148,674.500807 166.4616,657.696691" id="Fill-13" opacity="0.02"></path>
                        <path d="M709.1311,704.586968 C649.044784,730.024961 608.68933,780.593231 583.08046,804.561018 C573.558773,814.100265 560.359033,827.16117 543,842 L560.393407,842 C572.596291,831.435027 582.599219,821.998352 590.195944,814.715701 C615.461071,792.012975 655.507157,744.453501 715.009109,719.904469 C766.845587,699.355768 820.71015,707.835099 860,714.639078 L860,702.467135 C819.610171,694.363903 763.305031,682.670632 709.1311,704.586968" id="Fill-59" opacity="0.459999979"></path>
                        <path d="M725.776586,749.384099 C663.048844,774.412515 620.42835,820.137505 593,843 L613.863419,843 C640.982427,819.965606 679.547099,785.792193 732.650859,765.164378 C776.474351,748.730885 821.432097,748.868404 859,751.859437 L859,738.038801 C819.782272,733.603821 772.074816,731.644178 725.776586,749.384099" id="Fill-62" opacity="0.479999989"></path>
                        <path d="M673.124871,578.256816 C620.016243,603.31679 584.644798,662.945799 562.89359,691.678948 C541.897156,720.480754 504.26139,777.981381 431.151256,839.704442 C429.77894,840.871619 428.372316,841.867152 427,843 L438.012836,843 C509.887885,783.508307 547.420727,728.307705 568.45147,700.364117 C589.585136,673.004117 624.373346,616.739325 676.178274,592.468911 C727.777355,569.331345 778.00412,594.356991 811.008319,607.367581 C824.354092,612.276589 839.140797,619.176665 860,628.102135 L860,619.588609 C838.660486,609.804921 823.942398,602.218271 810.562317,596.862989 C776.769036,582.444921 725.993344,554.432675 673.124871,578.256816" id="Fill-68"></path>
                        <path d="M428.941843,717.491528 C492.934496,629.022275 525.962963,556.532352 546.777778,522.104782 C565.975574,489.254571 602.134864,422.902631 654.670768,400.305252 C706.931436,379.07949 743.813223,418.170555 766.313866,439.910674 C787.369513,455.58139 802.025895,484.385333 859,531.020288 L859,525.465242 C803.814937,478.315931 789.502602,448.757599 769.410285,432.503946 C746.6,409.015016 709.580594,366.220587 654.911601,387.994996 C600.139394,411.278183 562.638323,481.299197 542.855647,515.726766 C522.556902,549.948594 490.14772,621.512676 428.941843,708.40457 C383.14925,772.596214 334.397857,815.356353 297,842 L305.153903,842 C342.070095,815.11632 386.727334,775.099414 428.941843,717.491528" id="Fill-88" opacity="0.3"></path>
                        <path d="M682.034086,620.114049 C627.256804,645.327702 590.658281,702.084078 567.865974,729.213558 C548.998626,752.819284 516.46278,796.062237 459,843 L471.807762,843 C524.760282,799.791258 555.643513,760.379958 573.891131,738.41637 C596.235855,712.552705 632.283506,659.183237 686.027904,634.790653 C739.600155,611.492828 793.48227,633.080093 828.910191,643.993465 C837.999571,646.730361 848.018546,650.185692 860,654.256824 L860,644.746111 C847.329956,639.990755 836.966687,636.056467 827.533013,632.943248 C791.278784,620.661429 736.63922,596.166211 682.034086,620.114049" id="Fill-71" opacity="0.419999987"></path>
                        <path d="M776.3528,495.105072 C749.354335,474.796572 707.673096,437.346321 655.528666,460.098725 C603.144097,484.33124 567.740773,551.005078 547.80925,583.670784 C527.774811,616.164383 494.635654,682.872642 429.180671,761.180841 C400.604151,795.016867 371.307215,821.693286 344,843 L352.816525,843 C377.653741,823.414345 403.725956,799.491621 429.180671,770.405718 C497.654542,691.168148 531.685644,623.530517 552.234666,590.968075 C571.651605,559.713638 605.991457,496.722867 656.386304,473.247618 C706.609624,451.080374 747.913502,485.019664 774.465995,503.675947 C794.225989,515.310308 812.579457,535.10249 858,565.014501 L858,558.681002 C813.334179,527.83962 795.426684,507.25575 776.3528,495.105072" id="Fill-76" opacity="0.34"></path>
                        <path d="M694.309827,661.306196 C637.302224,686.761216 599.044858,740.801535 574.996389,766.600542 C559.824178,783.79988 535.569283,811.800401 498,843 L513.137807,843 C545.718495,815.893844 567.461889,791.780372 581.567573,776.404164 C605.306406,751.84351 643.013305,700.967869 699.126402,676.338418 C755.136286,652.740926 812.969588,671.07542 850.573275,679.91588 C853.600836,680.638252 856.766014,681.429421 860,682.220591 L860,671.281812 C855.871507,670.146656 851.949439,669.0115 848.233796,668.013938 C809.701197,657.900727 751.111006,637.020732 694.309827,661.306196" id="Fill-74" opacity="0.439999998"></path>
                        <path d="M665.184009,537.415469 C612.840762,562.277412 577.773196,624.277957 556.849663,654.386628 C536.235853,684.426714 500.376771,745.261319 429.828673,812.64576 C418.540978,823.344969 407.253282,832.912531 396,842 L406.014388,842 C413.963955,835.553041 421.913521,828.93462 429.828673,821.733229 C503.749314,753.93728 540.744048,692.72546 561.908477,662.548204 C582.419046,633.914103 616.591856,575.274208 667.524142,551.23528 C718.215531,528.430876 765.293481,556.653469 796.196989,571.467759 C812.577913,578.634857 830.163317,589.574112 860,604.559863 L860,596.912672 C830.128903,580.966736 812.749981,569.341634 796.57554,561.694443 C764.983757,545.268414 717.424015,513.959511 665.184009,537.415469" id="Fill-82" opacity="0.38"></path>
                        <path d="M659.957863,498.717619 C607.73554,523.353394 572.725584,587.777492 552.277291,619.216452 C532.104396,650.586693 497.576386,714.564118 429.690808,787.440658 C409.414639,808.949717 388.931922,827.160262 369,843 L378.329103,843 C395.334923,829.359271 412.581715,814.034925 429.690808,796.54593 C500.812312,722.9822 536.200939,658.386304 557.062329,626.912985 C576.959826,596.985844 611.040314,536.032057 661.506976,512.25527 C711.835939,489.681066 755.934025,520.913868 784.678679,537.681314 C803.095913,547.061462 821.822969,562.351448 860,584.3759 L860,577.503996 C822.201641,554.448759 803.818832,538.368504 785.814695,528.472963 C756.519246,510.05626 712.008063,475.593663 659.957863,498.717619" id="Fill-79" opacity="0.36"></path>
                        <path d="M429.775637,691.174458 C491.762363,598.295326 524.769177,523.44931 545.936215,488.20745 C565.244685,454.442588 602.794667,386.706772 656.865265,364.517453 C710.832609,343.805132 745.870081,385.264123 766.486433,408.449557 C787.619053,426.036138 799.803007,459.388814 860,514.552973 L860,509.366306 C801.93692,453.858659 790.200399,419.819007 770.065899,401.682845 C749.277458,376.573879 714.17115,331.233474 657.725714,352.529725 C601.108187,375.337322 562.078233,446.954552 542.219077,482.265109 C521.465053,517.300876 489.181017,591.047731 429.775637,682.037679 C373.054857,768.047052 311.515564,817.646707 274,842 L282.673323,842 C322.219547,815.070548 378.04546,767.669216 429.775637,691.174458" id="Fill-85" opacity="0.28"></path>
                        <path d="M429.955958,744.303265 C496.182741,660.2219 529.554158,589.930567 550.196272,556.298021 C569.496649,524.178595 604.553839,459.320741 655.849493,436.280039 C706.869918,414.511735 745.986724,451.239301 770.516436,471.425706 C791.124146,485.14696 808.119487,509.494447 860,547.631966 L860,541.751429 C809.426821,502.857349 792.878726,477.684523 773.062297,463.447433 C748.085339,441.404016 708.796515,401.203151 655.608668,423.55607 C602.2144,447.318943 565.849876,515.822042 546.06785,549.488977 C525.907385,582.949578 493.258441,652.381184 429.955958,735.190152 C392.937767,783.025399 354.405821,817.930341 321,843 L329.49767,843 C361.148912,818.824458 396.274909,786.567477 429.955958,744.303265" id="Fill-91" opacity="0.32"></path>
                        <path d="M97.352,823.653288 C189.6472,812.32041 256.0048,759.536669 286.2424,733.608416 C318.888,706.443849 375.7856,643.735254 430,533.359884 C483.6296,422.950172 522.2264,340.117132 547.8888,302.34087 C570.4552,265.93829 620.9544,194.060365 690.6144,175.824733 C760.1368,159.031468 789.4112,211.265736 800.832,241.246351 C819.1328,267.483682 813.2504,321.606764 860,419.378599 L860,413.403081 C817.2752,318.03519 823.2952,263.980793 806.4736,237.537409 C795.7064,205.427586 766.7416,149.106613 693.5384,166.140274 C620.3008,184.822352 567.8064,260.443561 544.5176,298.460217 C519.5776,335.824375 481.6344,417.043339 430,524.259239 C377.8152,631.440798 324.0136,693.42821 292.916,720.695803 C262.5752,748.066422 195.4952,804.353053 100.9984,816.578825 C56.1752,821.558423 23.5296,813.110277 0,799.922927 L0,808.98923 C23.3576,820.768556 54.868,828.18644 97.352,823.653288" id="Fill-100" opacity="0.16"></path>
                        <path d="M429.784764,612.987334 C486.814096,509.571119 521.472235,429.708531 544.42852,392.798694 C565.010017,357.090572 608.272461,286.429692 668.984435,266.069196 C729.696409,247.116423 760.775158,294.601359 776.262906,321.725797 C796.603483,344.421055 799.012688,389.845907 860,469.571156 L860,464.626954 C802.247907,385.5884 800.148456,339.648528 781.150152,316.472583 C765.937741,287.425399 734.893409,235.923301 671.083886,255.21942 C607.239945,276.163607 562.153388,350.635642 540.986798,387.854492 C518.615606,424.558321 484.611394,502.944516 429.784764,603.81996 C374.476293,704.420727 314.418246,761.931404 280.414034,787.339106 C262.035239,801.279007 231.025325,823.390575 190,842 L202.114861,842 C233.400113,826.721044 257.69867,810.206038 273.083166,799.150254 C308.773822,773.879891 372.101505,716.12887 429.784764,612.987334" id="Fill-93" opacity="0.22"></path>
                        <path d="M430.546357,639.672322 C488.814627,539.436008 522.655574,460.801755 544.918451,424.167687 C564.810744,389.012741 605.900868,318.978034 664.134782,297.857548 C722.196915,278.216184 754.251335,323.965771 771.292055,349.936402 C791.974543,371.091286 797.883825,412.850684 860,484.777291 L860,479.755156 C800.872822,408.206929 795.238391,365.725169 775.79273,344.157506 C758.820722,316.294976 726.835014,266.589597 665.852597,286.643739 C604.698398,308.348995 561.959172,382.2019 541.448466,418.904765 C519.735289,455.160453 486.478399,532.693964 430.546357,630.556803 C373.961545,728.385244 312.051507,783.972713 277.145515,808.636212 C264.571113,817.648537 246.259209,830.272671 223,843 L232.928968,843 C247.942668,834.434852 260.414001,826.351278 269.655844,820.090808 C306.245294,795.633698 371.522248,739.805442 430.546357,639.672322" id="Fill-96" opacity="0.24"></path>
                        <path d="M430.712758,664.461173 C490.778629,567.896148 523.919604,491.316005 545.555681,455.42549 C565.062493,421.008988 604.179146,352.210265 660.089517,330.648532 C715.862515,310.423696 749.278234,353.992793 768.029501,378.571111 C788.978719,398.007522 797.942236,435.440609 860,499.063146 L860,493.989797 C800.586646,430.40154 791.966558,392.214306 772.04763,372.332263 C753.296363,345.8343 719.914987,298.425912 661.360207,319.062101 C602.736741,341.240862 562.074654,413.844597 541.880982,449.83795 C520.863078,485.45423 488.271591,560.903154 430.712758,655.342857 C372.53575,749.714001 308.760838,802.744208 273.009796,826.431262 C266.82806,830.544788 258.826146,835.652416 250,841 L259.444319,841 C261.367526,839.800222 263.668506,838.429046 265.385655,837.366385 C302.750816,813.987845 369.925684,760.88908 430.712758,664.461173" id="Fill-98" opacity="0.26"></path>
                        <path d="M128.4152,759.547455 C211.2504,745.080987 270.384,690.78031 297.6288,663.732813 C327.316,635.622614 377.6776,570.146419 430,456.334394 C481.9784,342.350965 526.0792,258.980228 554.8032,221.614232 C580.2936,185.139535 638.8768,114.212704 718.0312,98.6835326 C797.22,84.4913102 826.976,139.717567 835.4728,171.907173 C850.196,197.617721 842.8688,249.038817 860,339.060015 L860,322.502422 C847.7536,241.737021 854.4272,194.121086 841.7336,169.40468 C834.0624,135.226791 804.7536,75.8868468 721.4368,90.1819114 C638.292,106.019609 577.5072,180.511636 551.3632,218.426124 C523.4304,255.380752 480.2928,336.900329 430,447.284281 C379.432,557.393987 331.7536,621.738919 303.58,649.849118 C276.1976,678.302124 216.5824,735.996593 131.924,751.422922 C54.5928,764.038231 15.3424,727.597814 0,699.864703 L0,715.599559 C17.5096,740.967299 56.8632,770.825816 128.4152,759.547455" id="Fill-108" opacity="0.1"></path>
                        <path d="M429.342758,586.21563 C484.957591,480.318305 520.705074,399.37833 544.490899,362.113716 C565.630035,326.048975 611.13933,254.982236 674.556739,235.304326 C737.939775,216.997699 768.187645,266.12391 782.177285,294.269492 C801.872773,318.335508 801.219694,367.050334 859,453.749698 L859,448.710233 C804.794442,363.210742 805.653757,314.050249 787.333172,289.607131 C773.687258,259.404624 743.645624,206.26741 676.96282,224.848294 C610.245643,245.006153 562.845856,319.946766 541.122386,357.519918 C517.920895,394.510275 482.826491,474.078968 429.342758,577.165163 C375.27469,680.251358 317.391266,739.285088 284.324845,765.373746 C259.989059,785.017374 213.311096,820.465038 149,841 L164.845759,841 C216.988962,821.562064 255.829977,793.930713 277.244094,777.543882 C311.926026,751.55807 373.0061,692.044391 429.342758,586.21563" id="Fill-105" opacity="0.2"></path>
                        <path d="M118.0952,783.945108 C204.2672,770.447478 265.8776,716.319578 294.0512,689.564734 C324.7704,661.573466 377.2648,596.626855 430,483.56274 C482.1848,370.395588 524.428,286.765235 552.1544,249.019955 C576.544,212.545444 632.3752,140.935881 708.3992,124.415881 C784.4232,109.269685 813.6976,163.775382 823.0544,195.338542 C839.36,222.162076 831.3792,277.560745 860,376.165568 L860,366.102449 C836.0576,272.924154 843.7288,218.933635 829.1776,192.384862 C820.5432,158.760995 791.716,100.23692 711.6672,115.486151 C631.7904,132.349602 573.8952,207.565402 548.7144,245.551098 C521.8136,282.884238 480.4304,364.90037 430,474.426939 C379.1224,583.987853 329.4144,647.938456 300.2088,675.929724 C271.932,704.127063 209.84,761.689474 121.7072,776.114422 C59.0992,785.250222 21.1216,764.299703 0,741.185441 L0,753.584027 C21.844,774.328476 59.0992,792.187936 118.0952,783.945108" id="Fill-111" opacity="0.12"></path>
                        <path d="M138.46,734.129771 C218.0272,718.809936 274.7528,664.282291 301.0688,637.001333 C329.6896,608.829287 377.9184,542.991698 430,428.658434 C481.7376,314.32517 527.9368,231.21421 557.8648,194.028481 C584.3528,157.870929 645.6192,87.6121789 728.0416,73.0120679 C810.4984,59.8171319 840.7016,115.749952 848.6136,148.411702 C858.7272,167.021703 857.4888,199.340728 860,249.275849 L860,163.628719 C858.8648,157.08266 857.3856,151.153507 855.0808,146.321076 C848.0288,111.637244 818.204,51.5917173 731.5504,64.889471 C645.0344,79.6952173 581.4288,153.484041 554.2872,191.046768 C525.2536,227.855499 480.0864,309.081468 430,419.576205 C379.604,530.105215 333.9208,594.777537 306.7104,622.881037 C280.3256,651.498626 223.1872,709.213619 141.9344,725.595903 C60.2344,740.504467 21.6032,696.292863 9.46,669.08045 C5.0912,663.665385 2.2704,656.262512 0,647.317373 L0,670.177172 C1.892,674.461242 4.128,678.128406 6.8456,681.247209 C19.436,707.020175 58.5144,748.250066 138.46,734.129771" id="Fill-117" opacity="0.08"></path>
                        <path d="M107.7408,806.286449 C197.0088,793.881239 261.0616,740.274237 290.2328,713.814371 C321.9152,686.186147 376.5768,622.30447 430,510.245218 C482.8728,398.151603 523.1552,314.717116 549.8152,276.95167 C573.3104,240.42331 626.3896,168.569309 699.18,151.181397 C772.0048,135.202387 801.176,188.603208 811.496,219.427234 C828.9368,246.299462 821.1624,301.830817 860,402.447036 L860,394.440349 C825.944,298.0852 833.168,242.966206 817.344,216.128341 C807.712,183.208144 778.988,125.649344 702.3792,141.800172 C625.8392,159.600445 570.5928,235.200063 546.444,273.27478 C520.5064,310.696591 481.0152,392.412905 430,501.104537 C378.5376,609.79617 326.8,672.853124 296.6656,700.584438 C267.3912,728.418843 202.7536,785.462191 111.3872,798.829578 C58.6864,805.564817 23.1856,792.437974 0,774.6377 L0,785.221647 C23.3232,801.097566 57.8608,812.471873 107.7408,806.286449" id="Fill-114" opacity="0.14"></path>
                        <path d="M430,561.677749 C484.5928,453.215331 521.6416,371.130094 546.3064,333.522004 C568.116,297.32207 616.104,225.574765 682.5992,206.581821 C749.0256,188.997033 778.7128,239.862404 791.3376,268.952863 C810.3952,294.196649 806.8864,346.023688 860,438.996382 L860,433.638517 C810.7048,342.383088 814.3856,290.349977 796.7728,264.728393 C784.6296,233.474181 755.252,178.659102 685.3168,196.484306 C615.3128,215.992429 565.4672,291.449026 542.9352,329.228843 C518.9584,366.56217 482.4944,447.136215 430,552.610593 C376.9208,658.016281 321.0552,718.670059 288.9256,745.459383 C257.656,772.214362 188.2368,827.578966 90.6096,838.638148 C52.46,842.34744 22.876,836.920884 0,827.304204 L0,835.650108 C8.256,838.706839 17.5096,841.1797 27.4856,843 L101.136,843 C188.856,829.502302 252.4616,782.07146 282.0456,758.029758 C315.7576,731.34347 374.8224,670.037132 430,561.677749" id="Fill-103" opacity="0.18"></path>
                    </g>
                </g>
            </g>
        </g>
    </g>
</svg>