<?xml version="1.0" encoding="UTF-8"?>
<svg width="30px" height="31px" viewBox="0 0 30 31" version="1.1" xmlns="http://www.w3.org/2000/svg" xmlns:xlink="http://www.w3.org/1999/xlink">
    <!-- Generator: sketchtool 52.2 (67145) - http://www.bohemiancoding.com/sketch -->
    <title>520C41A6-B83C-4D2C-A192-C065D509B8FF</title>
    <desc>Created with sketchtool.</desc>
    <defs>
        <path d="M29.1313855,4.32579222 C28.1776506,2.84877665 26.5643976,1.99382218 24.5598795,1.89255642 L24.5598795,0.513770428 C24.5598795,0.262898054 24.3540964,0.0595330739 24.100241,0.0595330739 L20.7912048,0.0595330739 L21.6464458,0.0594735409 L5.89993976,0.0594735409 C5.64608434,0.0594735409 5.4403012,0.262838521 5.4403012,0.513710895 L5.4403012,1.89255642 C3.43596386,1.99394125 1.82289157,2.84889572 0.869277108,4.32585175 C-0.221807229,6.01540039 -0.258192771,8.23919883 0.76939759,10.4269798 C1.55018072,12.0886074 3.08891566,13.4802525 5.34283133,14.5633377 C7.02331325,15.3708444 8.49403614,15.7038724 8.65614458,15.7391755 L9.0310241,15.8208549 C9.83144578,16.8425019 10.7340361,17.653521 11.7131928,18.2221214 C12.6668072,18.7758981 13.2580723,19.812607 13.2564458,20.9276615 L13.2544578,22.2378058 L10.6054819,22.2378058 C9.35879518,22.2378058 8.34819277,23.2365922 8.34819277,24.4685696 L8.34819277,25.0235965 L21.6524096,25.0235965 L21.6524096,24.4685696 C21.6524096,23.2365922 20.641747,22.2378058 19.3951205,22.2378058 L16.7460843,22.2378058 L16.7439759,20.9277805 C16.7422289,19.8127261 17.3336145,18.7758981 18.2872289,18.2220023 C19.2663855,17.6534019 20.1688554,16.8423829 20.9692771,15.8207953 L21.3445783,15.739116 C21.5070482,15.7036938 22.98,15.3694156 24.6574699,14.5633377 C26.911506,13.480193 28.4501807,12.0885479 29.2306024,10.4268607 C30.2580723,8.23937743 30.2219277,6.01575759 29.1313855,4.32579222 Z M5.45271084,4.62399339 C5.53783133,7.39103113 6.07987952,10.0340019 7.03524096,12.3321572 C6.91210843,12.2791728 6.79072289,12.2251763 6.67216867,12.16987 C5.47879518,11.6136525 3.91987952,10.6607066 3.27060241,9.27894397 C2.6473494,7.95254708 2.61945783,6.68157549 3.19409639,5.7918537 C3.63216867,5.11299805 4.4260241,4.70614903 5.45271084,4.62399339 Z M24.5476506,4.62393385 C25.5740361,4.70602996 26.3680723,5.11305759 26.8066265,5.79179416 C27.3807831,6.68163502 27.3526506,7.95260661 26.7294578,9.2788249 C26.0798795,10.6611829 24.5212048,11.6139502 23.3278916,12.1698105 C23.2092169,12.2251763 23.0879518,12.2789942 22.965241,12.3318 C23.9204217,10.0337638 24.4624699,7.39091206 24.5476506,4.62393385 Z M8.34819277,26.0235965 L21.6524096,26.0235965 L22.9086747,26.0235965 C23.1625301,26.0235965 23.3683133,26.2269615 23.3683133,26.4778339 L23.3683133,30.0862891 C23.3683133,30.3371615 23.1625301,30.5405265 22.9086747,30.5405265 L7.09192771,30.5405265 C6.83807229,30.5405265 6.63228916,30.3371615 6.63228916,30.0862891 L6.63228916,26.4778339 C6.63228916,26.2269615 6.83807229,26.0235965 7.09192771,26.0235965 L8.34819277,26.0235965 Z" id="path-1"></path>
    </defs>
    <g id="03_Get-coins" stroke="none" stroke-width="1" fill="none" fill-rule="evenodd">
        <g id="03_3_BG_miner_mania" transform="translate(-1066.000000, -304.000000)" fill="#5F2EC1" fill-rule="nonzero">
            <g id="Group-13-Copy-2" transform="translate(1046.000000, 248.000000)">
                <g id="Group-20">
                    <g id="Group">
                        <g id="Group-18" transform="translate(19.775253, 51.000000)">
                            <g id="Group-10">
                                <g id="ic_cup" transform="translate(0.224747, 5.000000)">
                                    <g id="cup">
                                        <g id="Shape">
                                            <use xlink:href="#path-1"></use>
                                            <use xlink:href="#path-1"></use>
                                        </g>
                                    </g>
                                </g>
                            </g>
                        </g>
                    </g>
                </g>
            </g>
        </g>
    </g>
</svg>